<?xml version="1.0" standalone="no"?>
<!DOCTYPE svg PUBLIC "-//W3C//DTD SVG 20010904//EN"
 "http://www.w3.org/TR/2001/REC-SVG-20010904/DTD/svg10.dtd">
<svg version="1.0" xmlns="http://www.w3.org/2000/svg"
 width="243.000000pt" height="243.000000pt" viewBox="0 0 243.000000 243.000000"
 preserveAspectRatio="xMidYMid meet">
<metadata>
Created by potrace 1.11, written by Peter Selinger 2001-2013
</metadata>
<g transform="translate(0.000000,243.000000) scale(0.100000,-0.100000)"
fill="#000000" stroke="none">
<path d="M245 2409 c-31 -13 -62 -19 -82 -16 l-33 6 15 -28 c17 -34 52 -50
124 -56 30 -2 61 -7 71 -10 14 -4 16 3 16 52 -1 81 -19 89 -111 52z"/>
<path d="M1925 2413 c-16 -9 -51 -17 -76 -17 -47 -1 -47 -1 -34 -26 18 -35 49
-49 120 -54 33 -3 67 -7 76 -11 12 -5 15 4 15 52 0 32 -5 61 -11 65 -17 13
-58 8 -90 -9z"/>
<path d="M357 2207 c-23 -115 -122 -460 -148 -514 -12 -24 -25 -43 -30 -43 -5
0 -9 -7 -9 -16 0 -8 5 -12 10 -9 11 7 12 -1 11 -99 0 -38 -3 -72 -6 -75 -3 -3
-22 -4 -41 -2 -22 2 -34 -2 -34 -10 0 -21 42 -163 51 -175 6 -7 9 -16 8 -20
-1 -5 -1 -287 0 -627 l1 -617 428 2 427 3 1 100 c2 119 6 140 32 191 46 88
116 127 185 105 102 -34 148 -130 149 -314 l0 -87 427 2 426 3 0 615 c0 461 3
623 12 645 13 32 44 140 46 165 1 9 -7 16 -23 17 -14 0 -33 1 -42 2 -14 1 -17
13 -16 87 0 65 4 87 15 91 11 4 8 13 -14 37 -21 22 -38 62 -61 141 -17 61 -41
144 -53 185 -12 41 -32 125 -44 185 l-22 110 -13 -60 c-44 -214 -135 -511
-173 -564 -22 -31 -26 -43 -14 -38 12 4 17 1 18 -11 2 -43 0 -154 -3 -157 -1
-2 -20 -5 -41 -7 -20 -2 -37 -7 -37 -11 0 -21 37 -153 49 -177 5 -9 9 -81 9
-160 1 -143 0 -144 -16 -110 -9 19 -20 34 -24 32 -5 -1 -19 -2 -34 -2 -19 0
-28 -7 -35 -30 -18 -51 -24 -34 -22 61 1 61 -2 96 -10 103 -7 6 -56 50 -109
99 l-96 87 -288 0 -289 0 -101 -94 -101 -95 1 -105 c1 -58 0 -106 -2 -106 -1
0 -11 19 -21 43 -18 41 -21 43 -54 39 -30 -3 -37 -9 -42 -33 -14 -61 -20 -24
-19 111 1 77 6 152 12 168 11 28 52 165 52 174 0 3 -15 6 -32 6 -18 0 -38 0
-45 1 -8 1 -11 25 -9 84 4 105 3 100 24 92 9 -3 3 8 -16 28 -36 37 -49 72
-111 302 -37 136 -53 203 -69 295 l-8 45 -17 -88z m386 -1444 c3 -10 4 -38 3
-63 -1 -43 -2 -44 -37 -48 -37 -3 -37 -3 -40 40 -7 76 -2 88 36 88 24 0 35 -5
38 -17z m168 -25 c7 -79 2 -88 -41 -86 l-39 1 1 64 1 63 37 0 c37 0 38 -1 41
-42z m166 -25 l-1 -63 -38 2 c-41 1 -43 5 -39 73 2 49 8 56 45 53 l34 -2 -1
-63z m164 42 c5 -101 3 -104 -38 -102 -37 2 -38 3 -40 42 -4 71 3 85 42 85 30
0 35 -3 36 -25z m167 -37 l-3 -63 -37 -2 c-33 -2 -37 1 -40 25 -2 15 -1 44 1
65 3 36 4 37 43 37 l39 0 -3 -62z m163 37 c5 -99 3 -104 -38 -102 l-38 2 -1
63 -1 62 38 0 c35 0 39 -3 40 -25z m169 -40 l0 -64 -40 1 -40 0 0 63 0 63 40
0 40 1 0 -64z m-1341 11 c7 -8 11 -36 9 -62 -3 -46 -4 -48 -35 -49 -18 -1 -33
3 -34 9 -3 31 1 98 6 106 9 15 41 12 54 -4z m1671 -5 c5 -11 9 -39 7 -63 -2
-44 -8 -48 -66 -39 -10 1 -7 93 3 110 11 18 44 13 56 -8z m-1662 -284 c-3 -50
-4 -52 -34 -55 -30 -3 -32 -1 -35 35 -8 77 10 102 54 81 15 -8 17 -19 15 -61z
m1665 50 c2 -7 4 -32 3 -56 -1 -41 -3 -45 -30 -48 -17 -2 -33 1 -37 8 -11 18
-1 102 12 110 15 9 47 0 52 -14z m-1669 -233 c3 -9 6 -35 6 -59 0 -37 -3 -43
-23 -47 -40 -8 -47 1 -47 56 0 29 3 56 7 59 12 13 51 7 57 -9z m1665 2 c7 -8
11 -35 10 -59 -2 -41 -5 -46 -31 -49 -15 -3 -31 -2 -35 1 -10 8 -10 92 1 109
10 16 41 15 55 -2z"/>
</g>
</svg>
