<?xml version="1.0" encoding="UTF-8"?>
<svg width="30px" height="26px" viewBox="0 0 32 28" version="1.1" xmlns="http://www.w3.org/2000/svg" xmlns:xlink="http://www.w3.org/1999/xlink">
    <title>724730</title>
    <g id="Screen-Design" stroke="none" stroke-width="1" fill="none" fill-rule="evenodd">
        <g id="01.00_Single-Pager_V2_Start" transform="translate(-1238.000000, -40.000000)" fill-rule="nonzero">
            <g id="724730" transform="translate(1239.000000, 41.000000)">
                <path d="M15,0 C6.729375,0 0,5.39961541 0,12.0361798 C0,15.426679 1.7475,18.6060822 4.8225,20.8799943 C3.9,22.2224913 2.53125,23.6538708 0.7125,24.1001353 C0.2775,24.2075351 -0.020625,24.6019514 0.001875,25.0445125 C0.024375,25.4870736 0.358125,25.8518624 0.8025,25.9148209 C0.87,25.9240795 1.426875,26 2.341875,26 C4.245,26 7.693125,25.6703938 11.480625,23.7334948 C12.60375,23.9575529 13.785,24.0723595 15,24.0723595 C23.270625,24.0723595 30,18.6727441 30,12.0361798 C30,5.39961541 23.270625,0 15,0 Z" id="Path" stroke="#294973"></path>
                <g id="Group" transform="translate(5.000000, 11.000000)" fill="#294973">
                    <ellipse id="Oval" cx="9.5" cy="1.9904" rx="1.9" ry="1.96923077"></ellipse>
                    <ellipse id="Oval" cx="1.9" cy="1.9904" rx="1.9" ry="1.96923077"></ellipse>
                    <ellipse id="Oval" cx="17.1" cy="1.9904" rx="1.9" ry="1.96923077"></ellipse>
                </g>
            </g>
        </g>
    </g>
</svg>
