<?xml version="1.0" encoding="UTF-8"?>
<svg width="31px" height="21px" viewBox="0 0 31 21" version="1.1" xmlns="http://www.w3.org/2000/svg" xmlns:xlink="http://www.w3.org/1999/xlink">
    <title>1250663</title>
    <defs>
        <filter id="filter-1">
            <feColorMatrix in="SourceGraphic" type="matrix" values="0 0 0 0 0.160784 0 0 0 0 0.286275 0 0 0 0 0.450980 0 0 0 1.000000 0"></feColorMatrix>
        </filter>
    </defs>
    <g id="Screen-Design" stroke="none" stroke-width="1" fill="none" fill-rule="evenodd">
        <g id="01.00_Single-Pager_V2_Start" transform="translate(-1101.000000, -44.000000)">
            <g id="1250663" transform="translate(1101.000000, 44.000000)" filter="url(#filter-1)">
                <g>
                    <path d="M27.3095238,0 L3.69047619,0 C1.65264135,0.000686715544 0.000922619048,1.64007062 0,3.66240477 L0,17.3375952 C0.000922619048,19.3599294 1.65264135,20.9995422 3.69047619,21 L27.3095238,21 C29.3473586,20.9995422 30.9990774,19.3599294 31,17.3375952 L31,3.66240477 C30.9990774,1.64007062 29.3473586,0.000686715544 27.3095238,0 Z M3.69047619,1.46496191 L27.3095238,1.46496191 C28.3726116,1.46770871 29.2848512,2.2164416 29.4869048,3.25198649 L15.5,10.9872143 L1.51309524,3.25198649 C1.71514881,2.2164416 2.62738841,1.46770871 3.69047619,1.46496191 Z M27.3095238,19.5279422 L3.69047619,19.5279422 C2.46915921,19.5242798 1.47965031,18.5425264 1.47619048,17.3304994 L1.47619048,4.90762239 L15.1383333,12.4665969 C15.2490476,12.5270266 15.3733706,12.5599882 15.5,12.5620484 C15.6270908,12.5634217 15.751875,12.5304601 15.8616667,12.4665969 L29.5238095,4.90762239 L29.5238095,17.3304994 C29.5228869,18.5436709 28.531994,19.5267977 27.3095238,19.5279422 Z" id="Shape" fill="#000000" fill-rule="nonzero"></path>
                </g>
            </g>
        </g>
    </g>
</svg>