<?xml version="1.0" encoding="UTF-8"?>
<svg width="17px" height="23px" viewBox="0 0 17 23" version="1.1" xmlns="http://www.w3.org/2000/svg" xmlns:xlink="http://www.w3.org/1999/xlink">
    <title>892533</title>
    <defs>
        <filter id="filter-1">
            <feColorMatrix in="SourceGraphic" type="matrix" values="0 0 0 0 0.160784 0 0 0 0 0.286275 0 0 0 0 0.450980 0 0 0 1.000000 0"></feColorMatrix>
        </filter>
    </defs>
    <g id="Screen-Design" stroke="none" stroke-width="1" fill="none" fill-rule="evenodd">
        <g id="01.00_Single-Pager_V2_Start" transform="translate(-566.000000, -43.000000)">
            <g id="892533" transform="translate(566.000000, 43.000000)" filter="url(#filter-1)">
                <g transform="translate(8.500000, 11.500000) rotate(-270.000000) translate(-8.500000, -11.500000) translate(-3.000000, 3.000000)">
                    <path d="M22.4652258,8.6658415 C22.5360815,8.49854011 22.496636,8.30603238 22.3653231,8.17819718 L14.1152955,0.125586132 C13.9332363,-0.0460770818 13.6430674,-0.0411280813 13.4671957,0.136574591 C13.2956639,0.309957372 13.2956639,0.584794665 13.4671957,0.758135506 L20.9353183,8.04755196 L0.958349188,8.04755196 C0.705219436,8.0475939 0.5,8.2479026 0.5,8.49497516 C0.5,8.74204772 0.705219436,8.94235642 0.958349188,8.94235642 L20.9353183,8.94235642 L13.468141,16.2308502 C13.2860818,16.4025134 13.2810115,16.6856969 13.4568831,16.8634415 C13.6327548,17.0411442 13.9228808,17.0460512 14.104983,16.8744299 C14.1088072,16.870823 14.1125455,16.8671742 14.1162408,16.8634415 L22.3662684,8.81083044 C22.4086357,8.76926722 22.4422804,8.72002886 22.4652258,8.6658415 Z" id="Path" fill="#2196F3" fill-rule="nonzero"></path>
                    <path d="M13.9508043,17 C13.7022844,17.0004607 13.5004647,16.8004168 13.5,16.5532568 C13.4997898,16.4341031 13.547376,16.3197744 13.6322128,16.2356116 L21.4143336,8.49704174 L13.6322128,0.758429939 C13.459544,0.5806644 13.464522,0.297338772 13.6432656,0.125614828 C13.8176641,-0.0418716092 14.0941114,-0.0418716092 14.2684677,0.125614828 L22.3682519,8.18107471 C22.543916,8.35581946 22.543916,8.63910313 22.3682519,8.81388983 L14.2684677,16.8693497 C14.1841793,16.953009 14.0699386,17 13.9508043,17 Z" id="Path" fill="#000000" fill-rule="nonzero"></path>
                    <path d="M22.0416103,9 L0.958346761,9 C0.705218349,9 0.5,8.77616838 0.5,8.50002344 C0.5,8.2238785 0.705218349,8 0.958346761,8 L22.0416532,8 C22.2947817,8 22.5,8.2238785 22.5,8.50002344 C22.5,8.77616838 22.2947387,9 22.0416103,9 Z" id="Path" fill="#000000" fill-rule="nonzero"></path>
                </g>
            </g>
        </g>
    </g>
</svg>