<?xml version="1.0" encoding="utf-8"?>
<!-- Generator: Adobe Illustrator 22.0.0, SVG Export Plug-In . SVG Version: 6.00 Build 0)  -->
<svg version="1.1" id="Слой_1" xmlns="http://www.w3.org/2000/svg" xmlns:xlink="http://www.w3.org/1999/xlink" x="0px" y="0px"
	 viewBox="0 0 18 14" style="enable-background:new 0 0 18 14;" xml:space="preserve">
<style type="text/css">
	.st0{fill:#294973;}
</style>
<path class="st0" d="M17.5,7.2c0.1-0.1,0.1-0.3,0-0.4c0-0.1-0.1-0.1-0.1-0.2l-6-6c-0.2-0.2-0.5-0.2-0.7,0s-0.2,0.5,0,0.7l5.1,5.1H1
	C0.7,6.5,0.5,6.7,0.5,7S0.7,7.5,1,7.5h14.8l-5.1,5.1c-0.2,0.2-0.2,0.5,0,0.7c0.1,0.1,0.2,0.1,0.4,0.1s0.3,0,0.4-0.1l6-6
	C17.4,7.3,17.4,7.3,17.5,7.2z"/>
</svg>
